<svg id="visual" viewBox="0 0 900 600" width="900" height="600" xmlns="http://www.w3.org/2000/svg" xmlns:xlink="http://www.w3.org/1999/xlink" version="1.1"><rect x="0" y="0" width="900" height="600" fill="#fff"></rect><path d="M0 98L21.5 99.5C43 101 86 104 128.8 104.5C171.7 105 214.3 103 257.2 105.2C300 107.3 343 113.7 385.8 111.8C428.7 110 471.3 100 514.2 99.7C557 99.3 600 108.7 642.8 111.3C685.7 114 728.3 110 771.2 105.3C814 100.7 857 95.3 878.5 92.7L900 90L900 0L878.5 0C857 0 814 0 771.2 0C728.3 0 685.7 0 642.8 0C600 0 557 0 514.2 0C471.3 0 428.7 0 385.8 0C343 0 300 0 257.2 0C214.3 0 171.7 0 128.8 0C86 0 43 0 21.5 0L0 0Z" fill="#ffb3b5"></path><path d="M0 94L21.5 96.3C43 98.7 86 103.3 128.8 107C171.7 110.7 214.3 113.3 257.2 110C300 106.7 343 97.3 385.8 92.7C428.7 88 471.3 88 514.2 88.5C557 89 600 90 642.8 92C685.7 94 728.3 97 771.2 94.3C814 91.7 857 83.3 878.5 79.2L900 75L900 0L878.5 0C857 0 814 0 771.2 0C728.3 0 685.7 0 642.8 0C600 0 557 0 514.2 0C471.3 0 428.7 0 385.8 0C343 0 300 0 257.2 0C214.3 0 171.7 0 128.8 0C86 0 43 0 21.5 0L0 0Z" fill="#ffa1a4"></path><path d="M0 55L21.5 56C43 57 86 59 128.8 63.3C171.7 67.7 214.3 74.3 257.2 78.2C300 82 343 83 385.8 85.3C428.7 87.7 471.3 91.3 514.2 90C557 88.7 600 82.3 642.8 75.3C685.7 68.3 728.3 60.7 771.2 62.2C814 63.7 857 74.3 878.5 79.7L900 85L900 0L878.5 0C857 0 814 0 771.2 0C728.3 0 685.7 0 642.8 0C600 0 557 0 514.2 0C471.3 0 428.7 0 385.8 0C343 0 300 0 257.2 0C214.3 0 171.7 0 128.8 0C86 0 43 0 21.5 0L0 0Z" fill="#ff8f94"></path><path d="M0 50L21.5 52.3C43 54.7 86 59.3 128.8 62.3C171.7 65.3 214.3 66.7 257.2 65.8C300 65 343 62 385.8 56.7C428.7 51.3 471.3 43.7 514.2 45.3C557 47 600 58 642.8 61.2C685.7 64.3 728.3 59.7 771.2 58.5C814 57.3 857 59.7 878.5 60.8L900 62L900 0L878.5 0C857 0 814 0 771.2 0C728.3 0 685.7 0 642.8 0C600 0 557 0 514.2 0C471.3 0 428.7 0 385.8 0C343 0 300 0 257.2 0C214.3 0 171.7 0 128.8 0C86 0 43 0 21.5 0L0 0Z" fill="#f97c7f"></path><path d="M0 20L21.5 19.7C43 19.3 86 18.7 128.8 18.5C171.7 18.3 214.3 18.7 257.2 19C300 19.3 343 19.7 385.8 21.3C428.7 23 471.3 26 514.2 25.5C557 25 600 21 642.8 18.5C685.7 16 728.3 15 771.2 18.7C814 22.3 857 30.7 878.5 34.8L900 39L900 0L878.5 0C857 0 814 0 771.2 0C728.3 0 685.7 0 642.8 0C600 0 557 0 514.2 0C471.3 0 428.7 0 385.8 0C343 0 300 0 257.2 0C214.3 0 171.7 0 128.8 0C86 0 43 0 21.5 0L0 0Z" fill="#f16969"></path></svg>